<svg xmlns="http://www.w3.org/2000/svg" viewBox="0 0 207.66 135.92"><defs><style>.cls-1{fill:#0f1726;}.cls-2{fill:#f2f2f2;}</style></defs><title>資產 1</title><g id="圖層_2" data-name="圖層 2"><g id="圖層_2-2" data-name="圖層 2"><rect class="cls-1" x="25.71" y="59.39" width="34.66" height="53.67"/><rect class="cls-1" x="144.38" y="61.8" width="37.05" height="53.67"/><path class="cls-2" d="M22.59,54.72v65.33a4.84,4.84,0,0,0,5,4.67H77.34a4.85,4.85,0,0,0,5-4.67V54.72a4.85,4.85,0,0,0-5-4.67H27.56A4.84,4.84,0,0,0,22.59,54.72Zm33,61.83a3.74,3.74,0,1,1-3.73-3.5A3.62,3.62,0,0,1,55.56,116.55ZM76.1,59.39a1.21,1.21,0,0,1,1.24,1.16v49a1.21,1.21,0,0,1-1.24,1.17H28.81a1.22,1.22,0,0,1-1.25-1.17v-49a1.21,1.21,0,0,1,1.25-1.16Zm-22.4-3.5a1.25,1.25,0,1,1-1.25-1.17A1.21,1.21,0,0,1,53.7,55.89Z"/><path class="cls-2" d="M203,60.1h-65.5a4.73,4.73,0,0,0-4.68,4.75V112.4a4.73,4.73,0,0,0,4.68,4.76H203a4.74,4.74,0,0,0,4.68-4.76V64.85A4.73,4.73,0,0,0,203,60.1ZM141,91.6A3.57,3.57,0,1,1,144.5,88,3.54,3.54,0,0,1,141,91.6Zm57.31,19.62a1.18,1.18,0,0,1-1.17,1.18H148a1.18,1.18,0,0,1-1.17-1.18V66A1.19,1.19,0,0,1,148,64.85h49.13A1.19,1.19,0,0,1,198.3,66Zm3.51-21.4A1.19,1.19,0,1,1,203,88.63,1.18,1.18,0,0,1,201.81,89.82Z"/><path class="cls-2" d="M155.45,33.81a1.8,1.8,0,0,1-2.11-1,44.5,44.5,0,0,0-17.89-24.3A49.86,49.86,0,0,0,98.7.77l-.12,0a50.12,50.12,0,0,0-32,19.51,45.83,45.83,0,0,0-6.09,11.18c-.38,1,.51,1.92,1.77,1.87l4.17-.19A2.08,2.08,0,0,0,68.25,32a46.3,46.3,0,0,1,5.08-9.66A41.13,41.13,0,0,1,99.51,6.13l.09,0a41,41,0,0,1,30.13,6.56,40,40,0,0,1,15.8,21.15,1.7,1.7,0,0,1-1.59,2l-3.26.57c-1.65.29-2.24,2-.94,2.75l10.95,6.35a2.27,2.27,0,0,0,2.76-.5l7.91-9.62c.95-1.15-.18-2.55-1.82-2.26Z"/><circle class="cls-1" cx="13.56" cy="119.08" r="13.56"/><rect class="cls-2" x="5.55" y="117.28" width="16.02" height="3.61" transform="translate(-80.23 44.47) rotate(-45)"/><rect class="cls-2" x="11.76" y="111.07" width="3.61" height="16.02" transform="translate(-80.23 44.47) rotate(-45)"/><circle class="cls-1" cx="130.93" cy="122.35" r="13.56"/><polygon class="cls-2" points="129.68 130.06 122.72 122.36 125.4 119.94 129.78 124.78 137.72 116.63 140.31 119.15 129.68 130.06"/></g></g></svg>