<svg xmlns="http://www.w3.org/2000/svg" viewBox="0 0 168.96 183.69"><defs><style>.cls-1{fill:#e3e3e3;}.cls-2{fill:#fff;}</style></defs><title>logo</title><g id="圖層_2" data-name="圖層 2"><g id="圖層_1-2" data-name="圖層 1"><path class="cls-1" d="M137.61,9.93V120H27.53V9.93H137.61M147.53,0H17.6V129.93H147.53V0Z"/><path class="cls-2" d="M122.91,24.36H42v81A135.73,135.73,0,0,1,122.91,24.36Z"/><path class="cls-2" d="M102.88,60.71A135.65,135.65,0,0,1,42,105.31h80.94v0A134.55,134.55,0,0,1,102.88,60.71Z"/><path class="cls-1" d="M20.23,176.59c-.31,1.62-1.12,5.48-1.43,6.52H0v-1.35c3.36-.27,3.74-.54,3.74-3.78V163.19c0-3.32-.38-3.55-3.32-3.82V158H12.24v1.35c-3,.27-3.32.5-3.32,3.82v15.06c0,1.81.15,2.51,1,2.85a8.23,8.23,0,0,0,2.9.35,5,5,0,0,0,3.94-1.31,12.56,12.56,0,0,0,2.16-4Z"/><path class="cls-1" d="M48.25,176.7c-.23,1.74-1,5.25-1.35,6.41H27.21v-1.35c3.28-.27,3.66-.5,3.66-3.78V163.15c0-3.36-.38-3.55-3.12-3.78V158H45.93c0,.69.23,3.4.39,5.79l-1.39.19a8.22,8.22,0,0,0-1.58-3.32c-.66-.69-1.7-1-3.86-1H37.63c-1.43,0-1.58.07-1.58,1.35v8.18h2.59c3.24,0,3.74-.19,4.28-2.89h1.39v7.79H42.92c-.54-2.77-1-2.93-4.28-2.93H36.05v6.68c0,1.82.15,2.78.93,3.17a10.15,10.15,0,0,0,3.47.38c2,0,3.36-.27,4.29-1.23a15.22,15.22,0,0,0,2.16-3.79Z"/><path class="cls-1" d="M81.11,172.46c-1.93.38-2.17.54-2.17,3.12v3a19.51,19.51,0,0,0,.24,3.63,37.81,37.81,0,0,1-8.81,1.43c-9,0-14.71-5.1-14.71-12.82,0-8.8,7.15-13.43,15.29-13.43a34,34,0,0,1,7.53,1.08c.12,1.35.31,3.36.62,6.41l-1.43.27c-1-4.29-3.86-6.14-7.49-6.14-4.63,0-8.65,4.17-8.65,11.12,0,5.83,2.86,11.89,9.19,11.89a4.24,4.24,0,0,0,2.16-.46c.58-.35.89-1,.89-2.13v-3.66c0-2.71-.19-3-4.25-3.36v-1.32H81.11Z"/><path class="cls-1" d="M109.06,176.7c-.23,1.74-1,5.25-1.35,6.41H88v-1.35c3.28-.27,3.67-.5,3.67-3.78V163.15c0-3.36-.39-3.55-3.13-3.78V158h18.18c0,.69.24,3.4.39,5.79l-1.39.19a8.22,8.22,0,0,0-1.58-3.32c-.66-.69-1.7-1-3.86-1H98.44c-1.43,0-1.58.07-1.58,1.35v8.18h2.59c3.24,0,3.74-.19,4.28-2.89h1.39v7.79h-1.39c-.54-2.77-1-2.93-4.28-2.93H96.86v6.68c0,1.82.15,2.78.93,3.17a10.15,10.15,0,0,0,3.47.38c2,0,3.36-.27,4.29-1.23a14.91,14.91,0,0,0,2.16-3.79Z"/><path class="cls-1" d="M140.28,183.46c-.23,0-.69,0-1.16,0-4.86-.23-6.37-1.31-7.91-3.74-1-1.59-2.05-3.67-3.17-5.68a2.65,2.65,0,0,0-2.55-1.7h-.73v5.64c0,3.16.39,3.55,3.28,3.82v1.35H116.38v-1.35c2.9-.27,3.32-.66,3.32-3.82V163.11c0-3.09-.35-3.47-3.16-3.74V158h10.84c3.36,0,5.33.38,6.88,1.46a5.9,5.9,0,0,1,2.62,5.14c0,3.4-2.24,5.21-4.82,6.29.54,1.12,2,3.71,3.12,5.49a31.33,31.33,0,0,0,3,4.16,5.53,5.53,0,0,0,2.35,1.66ZM125.76,170.8a5,5,0,0,0,5.64-5.64c0-4.09-2.39-5.6-4.56-5.6a2.59,2.59,0,0,0-1.73.39c-.27.23-.35.62-.35,1.43v9.42Z"/><path class="cls-1" d="M169,176.7c-.23,1.74-1,5.25-1.35,6.41H147.92v-1.35c3.28-.27,3.67-.5,3.67-3.78V163.15c0-3.36-.39-3.55-3.13-3.78V158h18.19c0,.69.23,3.4.38,5.79l-1.39.19a8,8,0,0,0-1.58-3.32c-.66-.69-1.7-1-3.86-1h-1.85c-1.43,0-1.59.07-1.59,1.35v8.18h2.59c3.24,0,3.75-.19,4.29-2.89H165v7.79h-1.39c-.54-2.77-1-2.93-4.29-2.93h-2.59v6.68c0,1.82.16,2.78.93,3.17a10.22,10.22,0,0,0,3.47.38c2,0,3.36-.27,4.29-1.23a14.91,14.91,0,0,0,2.16-3.79Z"/></g></g></svg>